<svg xmlns="http://www.w3.org/2000/svg" width="608" height="476" viewBox="0 0 608 476" font-family="Segoe UI, Arial, sans-serif">
<rect x="0" y="0" width="608" height="476" fill="white"/>
<line x1="40" y1="40" x2="568" y2="40" stroke="#ddd" stroke-width="1"/>
<line x1="40" y1="84" x2="568" y2="84" stroke="#ddd" stroke-width="1"/>
<line x1="40" y1="128" x2="568" y2="128" stroke="#ddd" stroke-width="1"/>
<line x1="40" y1="172" x2="568" y2="172" stroke="#ddd" stroke-width="1"/>
<line x1="40" y1="216" x2="568" y2="216" stroke="#ddd" stroke-width="1"/>
<line x1="40" y1="260" x2="568" y2="260" stroke="#ddd" stroke-width="1"/>
<line x1="40" y1="304" x2="568" y2="304" stroke="#ddd" stroke-width="1"/>
<line x1="40" y1="348" x2="568" y2="348" stroke="#ddd" stroke-width="1"/>
<line x1="40" y1="392" x2="568" y2="392" stroke="#ddd" stroke-width="1"/>
<line x1="40" y1="436" x2="568" y2="436" stroke="#ddd" stroke-width="1"/>
<line x1="40" y1="40" x2="40" y2="436" stroke="#ddd" stroke-width="1"/>
<line x1="84" y1="40" x2="84" y2="436" stroke="#ddd" stroke-width="1"/>
<line x1="128" y1="40" x2="128" y2="436" stroke="#ddd" stroke-width="1"/>
<line x1="172" y1="40" x2="172" y2="436" stroke="#ddd" stroke-width="1"/>
<line x1="216" y1="40" x2="216" y2="436" stroke="#ddd" stroke-width="1"/>
<line x1="260" y1="40" x2="260" y2="436" stroke="#ddd" stroke-width="1"/>
<line x1="304" y1="40" x2="304" y2="436" stroke="#ddd" stroke-width="1"/>
<line x1="348" y1="40" x2="348" y2="436" stroke="#ddd" stroke-width="1"/>
<line x1="392" y1="40" x2="392" y2="436" stroke="#ddd" stroke-width="1"/>
<line x1="436" y1="40" x2="436" y2="436" stroke="#ddd" stroke-width="1"/>
<line x1="480" y1="40" x2="480" y2="436" stroke="#ddd" stroke-width="1"/>
<line x1="524" y1="40" x2="524" y2="436" stroke="#ddd" stroke-width="1"/>
<line x1="568" y1="40" x2="568" y2="436" stroke="#ddd" stroke-width="1"/>
<text x="62.0" y="32" text-anchor="middle" font-size="11" fill="#777">1</text>
<text x="106.0" y="32" text-anchor="middle" font-size="11" fill="#777">2</text>
<text x="150.0" y="32" text-anchor="middle" font-size="11" fill="#777">3</text>
<text x="194.0" y="32" text-anchor="middle" font-size="11" fill="#777">4</text>
<text x="238.0" y="32" text-anchor="middle" font-size="11" fill="#777">5</text>
<text x="282.0" y="32" text-anchor="middle" font-size="11" fill="#777">6</text>
<text x="326.0" y="32" text-anchor="middle" font-size="11" fill="#777">7</text>
<text x="370.0" y="32" text-anchor="middle" font-size="11" fill="#777">8</text>
<text x="414.0" y="32" text-anchor="middle" font-size="11" fill="#777">9</text>
<text x="458.0" y="32" text-anchor="middle" font-size="11" fill="#777">10</text>
<text x="502.0" y="32" text-anchor="middle" font-size="11" fill="#777">11</text>
<text x="546.0" y="32" text-anchor="middle" font-size="11" fill="#777">12</text>
<text x="32" y="66.0" text-anchor="end" font-size="11" fill="#777">1</text>
<text x="32" y="110.0" text-anchor="end" font-size="11" fill="#777">2</text>
<text x="32" y="154.0" text-anchor="end" font-size="11" fill="#777">3</text>
<text x="32" y="198.0" text-anchor="end" font-size="11" fill="#777">4</text>
<text x="32" y="242.0" text-anchor="end" font-size="11" fill="#777">5</text>
<text x="32" y="286.0" text-anchor="end" font-size="11" fill="#777">6</text>
<text x="32" y="330.0" text-anchor="end" font-size="11" fill="#777">7</text>
<text x="32" y="374.0" text-anchor="end" font-size="11" fill="#777">8</text>
<text x="32" y="418.0" text-anchor="end" font-size="11" fill="#777">9</text>
<polyline points="106.0,238.0" fill="none" stroke="#1f77b4" stroke-width="5" stroke-linecap="round" stroke-linejoin="round"/>
<circle cx="106.0" cy="238.0" r="9" fill="white" stroke="#1f77b4" stroke-width="1.5"/>
<text x="106.0" y="242.0" text-anchor="middle" font-size="11" font-weight="bold" fill="#1f77b4">S</text>
<circle cx="106.0" cy="238.0" r="9" fill="white" stroke="#1f77b4" stroke-width="1.5"/>
<text x="106.0" y="242.0" text-anchor="middle" font-size="11" font-weight="bold" fill="#1f77b4">E</text>
<polyline points="150.0,238.0 194.0,238.0" fill="none" stroke="#ff7f0e" stroke-width="5" stroke-linecap="round" stroke-linejoin="round"/>
<circle cx="150.0" cy="238.0" r="9" fill="white" stroke="#ff7f0e" stroke-width="1.5"/>
<text x="150.0" y="242.0" text-anchor="middle" font-size="11" font-weight="bold" fill="#ff7f0e">S</text>
<circle cx="194.0" cy="238.0" r="9" fill="white" stroke="#ff7f0e" stroke-width="1.5"/>
<text x="194.0" y="242.0" text-anchor="middle" font-size="11" font-weight="bold" fill="#ff7f0e">E</text>
<polygon points="194.0,238.0 184.6,241.4 184.6,234.6" fill="#ff7f0e"/>
<polyline points="282.0,238.0" fill="none" stroke="#2ca02c" stroke-width="5" stroke-linecap="round" stroke-linejoin="round"/>
<circle cx="282.0" cy="238.0" r="9" fill="white" stroke="#2ca02c" stroke-width="1.5"/>
<text x="282.0" y="242.0" text-anchor="middle" font-size="11" font-weight="bold" fill="#2ca02c">S</text>
<circle cx="282.0" cy="238.0" r="9" fill="white" stroke="#2ca02c" stroke-width="1.5"/>
<text x="282.0" y="242.0" text-anchor="middle" font-size="11" font-weight="bold" fill="#2ca02c">E</text>
<polyline points="238.0,238.0" fill="none" stroke="#d62728" stroke-width="5" stroke-linecap="round" stroke-linejoin="round"/>
<circle cx="238.0" cy="238.0" r="9" fill="white" stroke="#d62728" stroke-width="1.5"/>
<text x="238.0" y="242.0" text-anchor="middle" font-size="11" font-weight="bold" fill="#d62728">S</text>
<circle cx="238.0" cy="238.0" r="9" fill="white" stroke="#d62728" stroke-width="1.5"/>
<text x="238.0" y="242.0" text-anchor="middle" font-size="11" font-weight="bold" fill="#d62728">E</text>
<polyline points="282.0,62.0" fill="none" stroke="#9467bd" stroke-width="5" stroke-linecap="round" stroke-linejoin="round"/>
<circle cx="282.0" cy="62.0" r="9" fill="white" stroke="#9467bd" stroke-width="1.5"/>
<text x="282.0" y="66.0" text-anchor="middle" font-size="11" font-weight="bold" fill="#9467bd">S</text>
<circle cx="282.0" cy="62.0" r="9" fill="white" stroke="#9467bd" stroke-width="1.5"/>
<text x="282.0" y="66.0" text-anchor="middle" font-size="11" font-weight="bold" fill="#9467bd">E</text>
<polyline points="150.0,414.0 194.0,414.0 238.0,414.0 282.0,414.0 326.0,414.0 326.0,370.0 326.0,326.0 370.0,326.0 414.0,326.0 458.0,326.0 502.0,326.0 502.0,282.0" fill="none" stroke="#8c564b" stroke-width="5" stroke-linecap="round" stroke-linejoin="round"/>
<circle cx="150.0" cy="414.0" r="9" fill="white" stroke="#8c564b" stroke-width="1.5"/>
<text x="150.0" y="418.0" text-anchor="middle" font-size="11" font-weight="bold" fill="#8c564b">S</text>
<circle cx="502.0" cy="282.0" r="9" fill="white" stroke="#8c564b" stroke-width="1.5"/>
<text x="502.0" y="286.0" text-anchor="middle" font-size="11" font-weight="bold" fill="#8c564b">E</text>
<polygon points="194.0,414.0 184.6,417.4 184.6,410.6" fill="#8c564b"/>
<polygon points="326.0,370.0 329.4,379.4 322.6,379.4" fill="#8c564b"/>
<polygon points="370.0,326.0 360.6,329.4 360.6,322.6" fill="#8c564b"/>
<polygon points="502.0,282.0 505.4,291.4 498.6,291.4" fill="#8c564b"/>
<polyline points="458.0,282.0" fill="none" stroke="#e377c2" stroke-width="5" stroke-linecap="round" stroke-linejoin="round"/>
<circle cx="458.0" cy="282.0" r="9" fill="white" stroke="#e377c2" stroke-width="1.5"/>
<text x="458.0" y="286.0" text-anchor="middle" font-size="11" font-weight="bold" fill="#e377c2">S</text>
<circle cx="458.0" cy="282.0" r="9" fill="white" stroke="#e377c2" stroke-width="1.5"/>
<text x="458.0" y="286.0" text-anchor="middle" font-size="11" font-weight="bold" fill="#e377c2">E</text>
<rect x="306" y="42" width="128" height="128" rx="8" fill="#eef3f9" stroke="#33475b" stroke-width="2"/>
<text x="370.0" y="112.0" text-anchor="middle" font-size="15" font-weight="bold" fill="#24303c">协议储存箱1</text>
<rect x="438" y="130" width="128" height="128" rx="8" fill="#eef3f9" stroke="#33475b" stroke-width="2"/>
<text x="502.0" y="200.0" text-anchor="middle" font-size="15" font-weight="bold" fill="#24303c">协议储存箱2</text>
<rect x="42" y="86" width="128" height="128" rx="8" fill="#eef3f9" stroke="#33475b" stroke-width="2"/>
<text x="106.0" y="156.0" text-anchor="middle" font-size="15" font-weight="bold" fill="#24303c">精炼炉1</text>
<rect x="174" y="262" width="128" height="128" rx="8" fill="#eef3f9" stroke="#33475b" stroke-width="2"/>
<text x="238.0" y="332.0" text-anchor="middle" font-size="15" font-weight="bold" fill="#24303c">精炼炉2</text>
<rect x="174" y="86" width="128" height="128" rx="8" fill="#eef3f9" stroke="#33475b" stroke-width="2"/>
<text x="238.0" y="156.0" text-anchor="middle" font-size="15" font-weight="bold" fill="#24303c">塑形机1</text>
<rect x="42" y="262" width="128" height="128" rx="8" fill="#eef3f9" stroke="#33475b" stroke-width="2"/>
<text x="106.0" y="332.0" text-anchor="middle" font-size="15" font-weight="bold" fill="#24303c">配件机1</text>
<rect x="306" y="174" width="128" height="128" rx="8" fill="#eef3f9" stroke="#33475b" stroke-width="2"/>
<text x="370.0" y="244.0" text-anchor="middle" font-size="15" font-weight="bold" fill="#24303c">配件机2</text>
<line x1="106.0" y1="194.0" x2="106.0" y2="238.0" stroke="#1f77b4" stroke-width="2.5" stroke-dasharray="3,2"/>
<circle cx="106.0" cy="194.0" r="10" fill="white" stroke="#1f77b4" stroke-width="2"/>
<text x="106.0" y="198.0" text-anchor="middle" font-size="10" font-weight="bold" fill="#1f77b4">S1</text>
<line x1="106.0" y1="282.0" x2="106.0" y2="238.0" stroke="#1f77b4" stroke-width="2.5" stroke-dasharray="3,2"/>
<circle cx="106.0" cy="282.0" r="10" fill="white" stroke="#1f77b4" stroke-width="2"/>
<text x="106.0" y="286.0" text-anchor="middle" font-size="10" font-weight="bold" fill="#1f77b4">E1</text>
<line x1="150.0" y1="194.0" x2="150.0" y2="238.0" stroke="#ff7f0e" stroke-width="2.5" stroke-dasharray="3,2"/>
<circle cx="150.0" cy="194.0" r="10" fill="white" stroke="#ff7f0e" stroke-width="2"/>
<text x="150.0" y="198.0" text-anchor="middle" font-size="10" font-weight="bold" fill="#ff7f0e">S2</text>
<line x1="194.0" y1="194.0" x2="194.0" y2="238.0" stroke="#ff7f0e" stroke-width="2.5" stroke-dasharray="3,2"/>
<circle cx="194.0" cy="194.0" r="10" fill="white" stroke="#ff7f0e" stroke-width="2"/>
<text x="194.0" y="198.0" text-anchor="middle" font-size="10" font-weight="bold" fill="#ff7f0e">E2</text>
<line x1="282.0" y1="282.0" x2="282.0" y2="238.0" stroke="#2ca02c" stroke-width="2.5" stroke-dasharray="3,2"/>
<circle cx="282.0" cy="282.0" r="10" fill="white" stroke="#2ca02c" stroke-width="2"/>
<text x="282.0" y="286.0" text-anchor="middle" font-size="10" font-weight="bold" fill="#2ca02c">S3</text>
<line x1="326.0" y1="238.0" x2="282.0" y2="238.0" stroke="#2ca02c" stroke-width="2.5" stroke-dasharray="3,2"/>
<circle cx="326.0" cy="238.0" r="10" fill="white" stroke="#2ca02c" stroke-width="2"/>
<text x="326.0" y="242.0" text-anchor="middle" font-size="10" font-weight="bold" fill="#2ca02c">E3</text>
<line x1="238.0" y1="282.0" x2="238.0" y2="238.0" stroke="#d62728" stroke-width="2.5" stroke-dasharray="3,2"/>
<circle cx="238.0" cy="282.0" r="10" fill="white" stroke="#d62728" stroke-width="2"/>
<text x="238.0" y="286.0" text-anchor="middle" font-size="10" font-weight="bold" fill="#d62728">S4</text>
<line x1="238.0" y1="194.0" x2="238.0" y2="238.0" stroke="#d62728" stroke-width="2.5" stroke-dasharray="3,2"/>
<circle cx="238.0" cy="194.0" r="10" fill="white" stroke="#d62728" stroke-width="2"/>
<text x="238.0" y="198.0" text-anchor="middle" font-size="10" font-weight="bold" fill="#d62728">E4</text>
<line x1="282.0" y1="106.0" x2="282.0" y2="62.0" stroke="#9467bd" stroke-width="2.5" stroke-dasharray="3,2"/>
<circle cx="282.0" cy="106.0" r="10" fill="white" stroke="#9467bd" stroke-width="2"/>
<text x="282.0" y="110.0" text-anchor="middle" font-size="10" font-weight="bold" fill="#9467bd">S5</text>
<line x1="326.0" y1="62.0" x2="282.0" y2="62.0" stroke="#9467bd" stroke-width="2.5" stroke-dasharray="3,2"/>
<circle cx="326.0" cy="62.0" r="10" fill="white" stroke="#9467bd" stroke-width="2"/>
<text x="326.0" y="66.0" text-anchor="middle" font-size="10" font-weight="bold" fill="#9467bd">E5</text>
<line x1="150.0" y1="370.0" x2="150.0" y2="414.0" stroke="#8c564b" stroke-width="2.5" stroke-dasharray="3,2"/>
<circle cx="150.0" cy="370.0" r="10" fill="white" stroke="#8c564b" stroke-width="2"/>
<text x="150.0" y="374.0" text-anchor="middle" font-size="10" font-weight="bold" fill="#8c564b">S6</text>
<line x1="502.0" y1="238.0" x2="502.0" y2="282.0" stroke="#8c564b" stroke-width="2.5" stroke-dasharray="3,2"/>
<circle cx="502.0" cy="238.0" r="10" fill="white" stroke="#8c564b" stroke-width="2"/>
<text x="502.0" y="242.0" text-anchor="middle" font-size="10" font-weight="bold" fill="#8c564b">E6</text>
<line x1="414.0" y1="282.0" x2="458.0" y2="282.0" stroke="#e377c2" stroke-width="2.5" stroke-dasharray="3,2"/>
<circle cx="414.0" cy="282.0" r="10" fill="white" stroke="#e377c2" stroke-width="2"/>
<text x="414.0" y="286.0" text-anchor="middle" font-size="10" font-weight="bold" fill="#e377c2">S7</text>
<line x1="458.0" y1="238.0" x2="458.0" y2="282.0" stroke="#e377c2" stroke-width="2.5" stroke-dasharray="3,2"/>
<circle cx="458.0" cy="238.0" r="10" fill="white" stroke="#e377c2" stroke-width="2"/>
<text x="458.0" y="242.0" text-anchor="middle" font-size="10" font-weight="bold" fill="#e377c2">E7</text>
</svg>